<?xml version="1.0" ?><!DOCTYPE svg  PUBLIC '-//W3C//DTD SVG 1.1//EN'  'http://www.w3.org/Graphics/SVG/1.1/DTD/svg11.dtd'><svg height="512px" id="Layer_1" style="enable-background:new 0 0 512 512;" version="1.1" viewBox="0 0 512 512" width="512px" xml:space="preserve" xmlns="http://www.w3.org/2000/svg" xmlns:xlink="http://www.w3.org/1999/xlink"><g><path d="M512.373,256.422c0,141.387-114.623,256-256.005,256S0.373,397.809,0.373,256.422   s114.613-256,255.995-256S512.373,115.035,512.373,256.422z" style="fill:#0D47A1;"/><path d="M304.725,382.354c0,8.951-7.261,16.207-16.212,16.207h-54.363c-8.951,0-16.202-7.256-16.202-16.207   v-52.576c0-8.95,7.251-16.211,16.202-16.211h54.363c8.951,0,16.212,7.261,16.212,16.211V382.354z" style="fill:#FEE7BE;"/><path d="M306.962,389.192c0,13.658-20.056,24.726-44.79,24.726c-24.735,0-44.782-11.067-44.782-24.726   c0-13.649,20.046-24.727,44.782-24.727C286.906,364.466,306.962,375.543,306.962,389.192z" style="fill:#FEE7BE;"/><path d="M158.468,377.298c6.723-2.33,13.881-4.438,21.43-6.295   C172.349,372.859,165.19,374.963,158.468,377.298z" style="fill:#788C3F;"/><path d="M180.622,370.817c1.718-0.418,3.463-0.817,5.218-1.207C184.085,370,182.339,370.399,180.622,370.817   z" style="fill:#788C3F;"/><path d="M153.705,379.016c1.346-0.501,2.702-1.003,4.095-1.49   C156.407,378.013,155.051,378.515,153.705,379.016z" style="fill:#788C3F;"/><path d="M148.58,381.017c1.207-0.492,2.423-0.975,3.658-1.453   C151.003,380.042,149.787,380.524,148.58,381.017z" style="fill:#788C3F;"/><path d="M186.926,369.369c1.755-0.386,3.519-0.753,5.302-1.11   C190.445,368.616,188.681,368.983,186.926,369.369z" style="fill:#788C3F;"/><path d="M143.528,383.157c1.114-0.492,2.247-0.976,3.389-1.458   C145.775,382.182,144.643,382.665,143.528,383.157z" style="fill:#788C3F;"/><path d="M341.688,370.678c3.612,0.873,7.141,1.802,10.576,2.785   C348.828,372.479,345.3,371.551,341.688,370.678z" style="fill:#788C3F;"/><path d="M352.83,373.621c3.37,0.975,6.629,2.006,9.813,3.083C359.459,375.627,356.2,374.596,352.83,373.621z   " style="fill:#788C3F;"/><path d="M363.953,377.145c3.129,1.082,6.184,2.205,9.127,3.375   C370.137,379.35,367.082,378.227,363.953,377.145z" style="fill:#788C3F;"/><path d="M330.212,368.181c3.751,0.737,7.437,1.531,11.021,2.386   C337.648,369.712,333.963,368.918,330.212,368.181z" style="fill:#788C3F;"/><path d="M138.607,385.423c1.049-0.507,2.126-1.003,3.212-1.495   C140.733,384.42,139.657,384.916,138.607,385.423z" style="fill:#788C3F;"/><path d="M109.137,405.172c0.455-0.437,0.929-0.873,1.402-1.31   C110.065,404.299,109.592,404.735,109.137,405.172z" style="fill:#788C3F;"/><path d="M98.645,418.76c0.232-0.44,0.474-0.887,0.733-1.327C99.119,417.873,98.877,418.319,98.645,418.76z" style="fill:#788C3F;"/><path d="M100.585,415.496c0.27-0.418,0.529-0.835,0.817-1.244   C101.115,414.661,100.855,415.078,100.585,415.496z" style="fill:#788C3F;"/><path d="M102.953,412.14c0.26-0.339,0.492-0.678,0.761-1.017   C103.445,411.462,103.213,411.801,102.953,412.14z" style="fill:#788C3F;"/><path d="M97.039,422.028c0.195-0.45,0.399-0.896,0.613-1.342C97.438,421.132,97.233,421.578,97.039,422.028z   " style="fill:#788C3F;"/><path d="M94.801,428.653c0.084-0.362,0.195-0.725,0.297-1.096C94.996,427.929,94.885,428.291,94.801,428.653   z" style="fill:#788C3F;"/><path d="M95.757,425.324c0.139-0.432,0.307-0.858,0.474-1.286C96.064,424.466,95.896,424.893,95.757,425.324   z" style="fill:#788C3F;"/><path d="M106.259,408.143c0.325-0.353,0.678-0.696,1.002-1.045   C106.937,407.446,106.583,407.79,106.259,408.143z" style="fill:#788C3F;"/><path d="M115.701,399.442c0.594-0.474,1.198-0.942,1.82-1.411   C116.899,398.5,116.295,398.969,115.701,399.442z" style="fill:#788C3F;"/><path d="M123.231,394.039c0.733-0.479,1.467-0.961,2.219-1.43   C124.699,393.078,123.965,393.561,123.231,394.039z" style="fill:#788C3F;"/><path d="M119.36,396.689c0.659-0.474,1.318-0.947,2.005-1.416   C120.678,395.742,120.019,396.216,119.36,396.689z" style="fill:#788C3F;"/><path d="M127.122,391.61c1.922-1.155,3.918-2.293,5.989-3.397   C131.04,389.317,129.044,390.455,127.122,391.61z" style="fill:#788C3F;"/><path d="M133.891,387.79c1.021-0.538,2.08-1.063,3.138-1.588C135.97,386.727,134.912,387.252,133.891,387.79   z" style="fill:#788C3F;"/><path d="M112.294,402.266c0.529-0.465,1.077-0.92,1.625-1.375   C113.371,401.346,112.823,401.801,112.294,402.266z" style="fill:#788C3F;"/><path d="M373.805,380.817c2.925,1.179,5.747,2.404,8.468,3.667   C379.552,383.217,376.729,381.996,373.805,380.817z" style="fill:#788C3F;"/><path d="M412.411,403.946c1.644,1.536,3.185,3.096,4.605,4.684   C415.596,407.042,414.055,405.482,412.411,403.946z" style="fill:#788C3F;"/><path d="M399.478,393.941c2.173,1.416,4.252,2.864,6.212,4.35   C403.729,396.806,401.65,395.357,399.478,393.941z" style="fill:#788C3F;"/><path d="M391.696,389.275c2.424,1.337,4.745,2.712,6.955,4.123   C396.441,391.987,394.12,390.612,391.696,389.275z" style="fill:#788C3F;"/><path d="M427.472,426.602c0.538,1.792,0.975,3.593,1.216,5.422   C428.446,430.194,428.01,428.394,427.472,426.602z" style="fill:#788C3F;"/><path d="M425.132,420.557c0.817,1.681,1.504,3.38,2.062,5.098   C426.636,423.937,425.949,422.237,425.132,420.557z" style="fill:#788C3F;"/><path d="M405.995,398.514c1.959,1.505,3.779,3.046,5.516,4.61   C409.774,401.56,407.954,400.019,405.995,398.514z" style="fill:#788C3F;"/><path d="M421.631,414.489c1.151,1.681,2.127,3.394,3.018,5.12   C423.758,417.883,422.782,416.17,421.631,414.489z" style="fill:#788C3F;"/><path d="M417.676,409.41c1.393,1.611,2.684,3.24,3.825,4.897C420.359,412.65,419.068,411.021,417.676,409.41   z" style="fill:#788C3F;"/><path d="M382.736,384.693c2.702,1.268,5.283,2.586,7.781,3.937   C388.02,387.279,385.438,385.961,382.736,384.693z" style="fill:#788C3F;"/><path d="M113.918,400.891c0.585-0.487,1.17-0.97,1.783-1.448   C115.088,399.921,114.503,400.403,113.918,400.891z" style="fill:#F0F4DC;"/><path d="M110.539,403.862c0.576-0.534,1.151-1.067,1.755-1.597   C111.69,402.795,111.115,403.328,110.539,403.862z" style="fill:#F0F4DC;"/><path d="M107.261,407.098c0.613-0.645,1.226-1.29,1.875-1.926   C108.487,405.808,107.874,406.453,107.261,407.098z" style="fill:#F0F4DC;"/><path d="M103.714,411.123c0.808-1.003,1.653-1.996,2.544-2.98   C105.367,409.127,104.522,410.12,103.714,411.123z" style="fill:#F0F4DC;"/><path d="M117.521,398.031c0.604-0.445,1.216-0.896,1.838-1.342   C118.738,397.136,118.125,397.586,117.521,398.031z" style="fill:#F0F4DC;"/><path d="M121.365,395.273c0.613-0.413,1.244-0.821,1.866-1.234   C122.609,394.452,121.978,394.86,121.365,395.273z" style="fill:#F0F4DC;"/><path d="M97.651,420.687c0.316-0.641,0.641-1.286,0.994-1.927C98.292,419.4,97.967,420.046,97.651,420.687z" style="fill:#F0F4DC;"/><path d="M95.098,427.558c0.195-0.743,0.409-1.49,0.659-2.233C95.507,426.067,95.293,426.814,95.098,427.558z   " style="fill:#F0F4DC;"/><path d="M94.16,432.023c0.158-1.133,0.372-2.252,0.641-3.37C94.532,429.771,94.318,430.891,94.16,432.023z" style="fill:#F0F4DC;"/><path d="M96.231,424.038c0.25-0.673,0.511-1.346,0.808-2.01C96.742,422.692,96.481,423.365,96.231,424.038z" style="fill:#F0F4DC;"/><path d="M101.402,414.252c0.492-0.71,1.012-1.411,1.551-2.112   C102.415,412.841,101.895,413.542,101.402,414.252z" style="fill:#F0F4DC;"/><path d="M99.378,417.433c0.381-0.646,0.789-1.296,1.207-1.937   C100.167,416.137,99.759,416.787,99.378,417.433z" style="fill:#F0F4DC;"/><path d="M125.451,392.609c0.548-0.34,1.114-0.669,1.671-0.999   C126.565,391.94,125.999,392.27,125.451,392.609z" style="fill:#F0F4DC;"/><path d="M137.029,386.202c0.529-0.26,1.049-0.52,1.579-0.779   C138.078,385.683,137.558,385.942,137.029,386.202z" style="fill:#F0F4DC;"/><path d="M146.917,381.699c0.548-0.232,1.105-0.455,1.662-0.683   C148.022,381.244,147.465,381.467,146.917,381.699z" style="fill:#F0F4DC;"/><path d="M141.82,383.928c0.566-0.26,1.133-0.516,1.708-0.771   C142.953,383.412,142.386,383.668,141.82,383.928z" style="fill:#F0F4DC;"/><path d="M152.238,379.563c0.483-0.186,0.975-0.362,1.467-0.548   C153.212,379.201,152.721,379.378,152.238,379.563z" style="fill:#F0F4DC;"/><path d="M157.799,377.525c0.213-0.079,0.446-0.153,0.668-0.228   C158.245,377.372,158.013,377.446,157.799,377.525z" style="fill:#F0F4DC;"/><path d="M179.897,371.003c0.242-0.065,0.483-0.125,0.724-0.186   C180.38,370.878,180.139,370.938,179.897,371.003z" style="fill:#F0F4DC;"/><path d="M185.84,369.61c0.362-0.084,0.724-0.167,1.086-0.241C186.564,369.443,186.202,369.526,185.84,369.61   z" style="fill:#F0F4DC;"/><path d="M133.111,388.213c0.26-0.14,0.511-0.283,0.78-0.423C133.622,387.93,133.371,388.073,133.111,388.213   z" style="fill:#F0F4DC;"/><path d="M225.737,363.427c-2.6,0.241-5.163,0.515-7.716,0.808l7.716,38.021V363.427z" style="fill:#F0F4DC;"/><path d="M141.179,432.023c3.055-31.337,27.688-58.778,75.839-67.659c-6.082,0.72-12.005,1.578-17.752,2.581   c-0.121,0.019-0.251,0.037-0.372,0.065c-1.913,0.334-3.788,0.687-5.654,1.049c-0.334,0.065-0.678,0.13-1.012,0.199   c-1.783,0.357-3.547,0.725-5.302,1.11c-0.362,0.074-0.724,0.157-1.086,0.241c-1.755,0.39-3.5,0.789-5.218,1.207   c-0.241,0.061-0.482,0.12-0.724,0.186c-7.549,1.856-14.707,3.965-21.43,6.295c-0.223,0.074-0.455,0.148-0.668,0.228   c-1.393,0.487-2.749,0.989-4.095,1.49c-0.492,0.186-0.984,0.362-1.467,0.548c-1.235,0.479-2.451,0.961-3.658,1.453   c-0.557,0.228-1.114,0.45-1.662,0.683c-1.142,0.482-2.275,0.966-3.389,1.458c-0.576,0.255-1.142,0.511-1.708,0.771   c-1.086,0.492-2.163,0.988-3.212,1.495c-0.529,0.26-1.049,0.52-1.579,0.779c-1.059,0.524-2.117,1.05-3.138,1.588   c-0.269,0.14-0.52,0.283-0.78,0.423c-2.071,1.104-4.067,2.242-5.989,3.397c-0.557,0.33-1.124,0.659-1.671,0.999   c-0.752,0.469-1.486,0.951-2.219,1.43c-0.622,0.413-1.253,0.821-1.866,1.234c-0.687,0.469-1.346,0.942-2.005,1.416   c-0.622,0.446-1.235,0.896-1.838,1.342c-0.623,0.469-1.226,0.938-1.82,1.411c-0.613,0.479-1.198,0.961-1.783,1.448   c-0.547,0.455-1.095,0.91-1.625,1.375c-0.604,0.529-1.179,1.063-1.755,1.597c-0.474,0.437-0.947,0.873-1.402,1.31   c-0.65,0.636-1.263,1.281-1.875,1.926c-0.325,0.349-0.678,0.692-1.002,1.045c-0.892,0.984-1.736,1.978-2.544,2.98   c-0.269,0.339-0.501,0.678-0.761,1.017c-0.539,0.701-1.059,1.402-1.551,2.112c-0.288,0.409-0.547,0.826-0.817,1.244   c-0.418,0.641-0.826,1.291-1.207,1.937c-0.26,0.44-0.501,0.887-0.733,1.327c-0.353,0.641-0.678,1.286-0.994,1.927   c-0.213,0.445-0.418,0.892-0.613,1.342c-0.297,0.664-0.557,1.337-0.808,2.01c-0.167,0.428-0.334,0.854-0.474,1.286   c-0.25,0.743-0.464,1.49-0.659,2.233c-0.102,0.371-0.213,0.733-0.297,1.096c-0.269,1.118-0.482,2.237-0.641,3.37   c-0.947,7.057-1.755,13.835-2.442,20.371c14.123,11.876,29.554,22.237,46.035,30.873   C138.236,467.956,139.35,450.975,141.179,432.023z" style="fill:#F0F4DC;"/><path d="M398.651,393.398c0.278,0.176,0.548,0.361,0.826,0.543   C399.199,393.76,398.93,393.574,398.651,393.398z" style="fill:#F0F4DC;"/><path d="M352.264,373.463c0.186,0.057,0.381,0.103,0.566,0.158   C352.645,373.565,352.449,373.52,352.264,373.463z" style="fill:#F0F4DC;"/><path d="M373.08,380.52c0.251,0.098,0.483,0.2,0.725,0.298C373.563,380.72,373.331,380.617,373.08,380.52z" style="fill:#F0F4DC;"/><path d="M390.518,388.63c0.399,0.214,0.789,0.428,1.179,0.646   C391.307,389.058,390.917,388.844,390.518,388.63z" style="fill:#F0F4DC;"/><path d="M424.648,419.609c0.168,0.315,0.335,0.632,0.483,0.947   C424.983,420.241,424.816,419.925,424.648,419.609z" style="fill:#F0F4DC;"/><path d="M427.193,425.654c0.102,0.315,0.186,0.631,0.278,0.947   C427.379,426.285,427.295,425.97,427.193,425.654z" style="fill:#F0F4DC;"/><path d="M341.232,370.566c0.158,0.037,0.307,0.079,0.455,0.111   C341.539,370.646,341.391,370.604,341.232,370.566z" style="fill:#F0F4DC;"/><path d="M421.501,414.308c0.037,0.065,0.093,0.121,0.13,0.182   C421.594,414.429,421.538,414.373,421.501,414.308z" style="fill:#F0F4DC;"/><path d="M417.017,408.63c0.223,0.26,0.437,0.524,0.659,0.78C417.453,409.15,417.239,408.89,417.017,408.63z" style="fill:#F0F4DC;"/><path d="M405.689,398.291c0.102,0.074,0.204,0.148,0.306,0.223   C405.894,398.439,405.791,398.365,405.689,398.291z" style="fill:#F0F4DC;"/><path d="M362.644,376.704c0.437,0.144,0.873,0.292,1.31,0.44   C363.517,376.996,363.08,376.848,362.644,376.704z" style="fill:#F0F4DC;"/><path d="M411.511,403.124c0.297,0.274,0.604,0.543,0.9,0.822   C412.114,403.667,411.808,403.398,411.511,403.124z" style="fill:#F0F4DC;"/><path d="M382.272,384.484c0.157,0.074,0.315,0.14,0.464,0.209   C382.588,384.624,382.43,384.559,382.272,384.484z" style="fill:#F0F4DC;"/><path d="M427.472,426.602c-0.093-0.316-0.177-0.632-0.278-0.947c-0.558-1.718-1.244-3.417-2.062-5.098   c-0.148-0.315-0.315-0.632-0.483-0.947c-0.891-1.727-1.866-3.439-3.018-5.12c-0.037-0.061-0.093-0.116-0.13-0.182   c-1.142-1.657-2.433-3.286-3.825-4.897c-0.223-0.256-0.437-0.521-0.659-0.78c-1.421-1.588-2.962-3.147-4.605-4.684   c-0.297-0.279-0.604-0.548-0.9-0.822c-1.736-1.564-3.557-3.105-5.516-4.61c-0.102-0.074-0.204-0.148-0.306-0.223   c-1.96-1.485-4.039-2.934-6.212-4.35c-0.278-0.182-0.548-0.367-0.826-0.543c-2.21-1.411-4.531-2.786-6.955-4.123   c-0.39-0.218-0.779-0.432-1.179-0.646c-2.498-1.351-5.079-2.669-7.781-3.937c-0.148-0.069-0.307-0.135-0.464-0.209   c-2.721-1.263-5.543-2.488-8.468-3.667c-0.241-0.098-0.474-0.2-0.725-0.298c-2.943-1.17-5.998-2.293-9.127-3.375   c-0.437-0.148-0.873-0.297-1.31-0.44c-3.185-1.077-6.443-2.108-9.813-3.083c-0.186-0.056-0.381-0.102-0.566-0.158   c-3.436-0.983-6.964-1.912-10.576-2.785c-0.148-0.032-0.297-0.074-0.455-0.111c-3.584-0.854-7.27-1.648-11.021-2.386   c-0.474-0.098-0.947-0.19-1.421-0.283c-3.751-0.72-7.576-1.394-11.485-1.992c-0.27-0.046-0.548-0.083-0.826-0.12   c-4.03-0.613-8.125-1.166-12.303-1.64c-0.028-0.004-0.065-0.009-0.103-0.014v5.524l1.021-5.19   c48.83,8.682,73.509,35.998,76.582,67.558c1.625,16.699,2.684,31.894,3.241,45.747c16.341-9.503,31.531-20.742,45.311-33.5   c-0.474-4.002-0.976-8.06-1.542-12.247C428.446,430.194,428.01,428.394,427.472,426.602z" style="fill:#F0F4DC;"/><path d="M225.737,402.256v108.276c0.529,0.065,1.059,0.145,1.588,0.204V410.078L225.737,402.256z" style="fill:#84817A;"/><path d="M218.021,364.234c-0.334,0.042-0.668,0.088-1.003,0.13c-48.151,8.881-72.785,36.322-75.839,67.659   c-1.829,18.951-2.943,35.933-3.426,51.244c26.871,14.085,56.555,23.514,87.984,27.265V402.256L218.021,364.234z" style="fill:#F0F4DC;"/><g><path d="M218.021,364.234c0.798-0.093,1.616-0.167,2.423-0.256c-0.798,0.089-1.625,0.153-2.423,0.246    V364.234z" style="fill:#84817A;"/><path d="M261.855,361.797c-0.148,0-0.287,0-0.427,0s-0.278,0-0.427,0c-12.191,0-23.956,0.59-35.265,1.648    v38.811l1.588,7.822v100.658c9.545,1.077,19.22,1.686,29.043,1.686c13.324,0,26.397-1.021,39.164-2.98    c2.869-0.441,5.71-0.993,8.542-1.527V369.656v-5.524C290.695,362.614,276.563,361.797,261.855,361.797z" style="fill:#84817A;"/><path d="M220.445,363.979c1.755-0.19,3.519-0.366,5.292-0.533v-0.019    C223.955,363.594,222.2,363.788,220.445,363.979z" style="fill:#84817A;"/></g><path d="M384.919,477.771c-0.558-13.854-1.616-29.048-3.241-45.747   c-3.073-31.56-27.752-58.876-76.582-67.558l-1.021,5.19v138.258C333.053,502.45,360.285,492.111,384.919,477.771z" style="fill:#F0F4DC;"/><g><g><path d="M394.427,138.86c40.891,16.021,59.628,26.88,63.035,21.467     c2.498-3.983-7.112-28.393-61.206-53.773c17.511,2.943,26.359,4.248,27.195,0.269c1.104-5.255-21.374-34.248-104.586-42.056     c-23.89-2.238-45.348,0.59-62.497,5.033c-17.14-4.443-38.606-7.271-62.487-5.033c-83.212,7.809-105.7,36.801-104.595,42.056     c0.845,3.979,9.693,2.674,27.205-0.269c-54.094,25.38-63.704,49.791-61.207,53.773c3.408,5.413,22.135-5.445,63.026-21.467     c-68.003,39.173-75.645,70.807-72.2,74.8c3.212,3.695,13.89-3.426,35.729-16.843c-28.468,42.005-25.719,73.128-21.216,78.295     c4.708,5.409,13.036-1.945,28.979-17.465c-3.798,30.051,4.317,50.245,9.155,54.34c5.673,4.801,11.43-0.432,20.594-12.841     c2.2,17.642,8.059,29.359,11.81,32.553c7.298,6.217,14.067-2.098,26.249-19.823c-3.946,16.146-3.277,28.115,1.551,31.853     c7.595,5.882,16.5,0.19,27.678-12.242c-0.482,10.492,1.319,17.929,5.163,20.459c16.174,10.664,34.085-26.002,64.567-71.155     c30.492,45.153,48.402,81.819,64.577,71.155c3.844-2.53,5.646-9.967,5.162-20.459c11.17,12.433,20.074,18.124,27.669,12.242     c4.838-3.737,5.507-15.706,1.561-31.853c12.172,17.726,18.95,26.04,26.248,19.823c3.751-3.193,9.61-14.911,11.802-32.553     c9.164,12.409,14.93,17.642,20.594,12.841c4.847-4.095,12.962-24.289,9.164-54.34c15.942,15.52,24.271,22.874,28.979,17.465     c4.503-5.167,7.242-36.29-21.226-78.295c21.838,13.417,32.525,20.538,35.738,16.843     C470.08,209.667,462.43,178.034,394.427,138.86z M244.614,98.573c4.373-1.253,8.273-2.405,11.754-3.478     c3.491,1.073,7.391,2.224,11.755,3.478c-4.225-0.139-8.124-0.083-11.755,0.093C252.747,98.49,248.848,98.434,244.614,98.573z" style="fill:#F0F4DC;"/><path d="M191.764,138.693c2.953-3.231,14.8-6.333,30.641-5.993     c-4.819-6.365-6.797-10.748-4.782-12.948c0.984-1.077,3.129-2.07,6.166-2.85c0.019-0.414,0.093-0.799,0.306-1.128     c1.95-2.948,12.739-5.854,28.087-5.232c-5.534-1.908-10.241-3.593-13.918-5.065c-17.168-0.701-28.003-1.355-27.678-4.034     c0.613-5.037,35.719-28.319,81.856-23.12c66.034,7.437,83.871,35.074,82.998,40.083c-0.668,3.788-7.688,2.544-21.587-0.26     c42.934,24.196,50.556,47.455,48.569,51.253c-2.702,5.158-17.567-5.19-50.019-20.455c53.965,37.335,60.037,67.483,57.298,71.285     c-2.544,3.524-11.021-3.264-28.356-16.054c22.591,40.037,20.418,69.703,16.843,74.628c-3.732,5.152-10.343-1.857-22.999-16.648     c3.018,28.645-3.426,47.892-7.261,51.796c-4.503,4.573-9.071-0.413-16.341-12.242c-1.746,16.815-6.397,27.985-9.369,31.026     c-5.794,5.928-11.17-2.001-20.835-18.891c3.129,15.385,2.6,26.792-1.235,30.357c-6.025,5.607-13.092,0.181-21.959-11.672     c0.381,10-1.049,17.089-4.095,19.503c-13.603,10.771-28.736-29.099-55.663-75.579c-26.917-46.48-41.411-90.277-32.358-97.845     c2.832-2.368,7.651-0.887,13.751,3.695c0.316-1.059,0.752-1.973,1.355-2.665C200.612,157.857,187.14,143.763,191.764,138.693z" style="opacity:0.3;fill:#84817A;"/><path d="M320.991,138.693c-2.952-3.231-14.8-6.333-30.64-5.993     c4.818-6.365,6.787-10.748,4.781-12.948c-0.984-1.077-3.138-2.07-6.165-2.85c-0.019-0.414-0.103-0.799-0.315-1.128     c-1.94-2.948-12.729-5.854-28.078-5.232c5.534-1.908,10.232-3.593,13.918-5.065c17.168-0.701,27.994-1.355,27.679-4.034     c-0.612-5.037-35.719-28.319-81.865-23.12c-66.025,7.437-83.871,35.074-82.989,40.083c0.659,3.788,7.688,2.544,21.578-0.26     c-42.924,24.196-50.547,47.455-48.57,51.253c2.702,5.158,17.567-5.19,50.018-20.455c-53.964,37.335-60.027,67.483-57.297,71.285     c2.554,3.524,11.031-3.264,28.356-16.054c-22.59,40.037-20.408,69.703-16.833,74.628c3.732,5.152,10.343-1.857,22.989-16.648     c-3.008,28.645,3.426,47.892,7.27,51.796c4.494,4.573,9.072-0.413,16.342-12.242c1.746,16.815,6.388,27.985,9.368,31.026     c5.794,5.928,11.17-2.001,20.826-18.891c-3.129,15.385-2.6,26.792,1.235,30.357c6.026,5.607,13.092,0.181,21.959-11.672     c-0.38,10,1.049,17.089,4.104,19.503c13.593,10.771,28.737-29.099,55.654-75.579c26.926-46.48,41.42-90.277,32.367-97.845     c-2.832-2.368-7.65-0.887-13.751,3.695c-0.325-1.059-0.752-1.973-1.355-2.665C312.134,157.857,325.615,143.763,320.991,138.693z" style="opacity:0.3;fill:#84817A;"/></g><path d="M329.738,213.957c-3.909,20.107,1.318,38.041,11.689,40.065    c10.371,2.015,21.959-12.646,25.868-32.744c3.918-20.102-1.31-38.036-11.681-40.06    C345.244,179.199,333.656,193.855,329.738,213.957z" style="fill:#FEE7BE;"/><path d="M175.942,213.957c3.918,20.107-1.319,38.041-11.69,40.065    c-10.371,2.015-21.95-12.646-25.868-32.744c-3.918-20.102,1.309-38.036,11.68-40.06    C160.437,179.199,172.024,193.855,175.942,213.957z" style="fill:#F3CD9E;"/><path d="M265.895,92.668c-3.082-0.668-6.694-0.947-10.947-0.789c-4.234-0.158-7.864,0.121-10.928,0.789    c-103.722,2.623-85.951,97.993-85.617,128.931c0.771,71.624,56.777,130.319,95.719,129.701c0.297-0.009,0.548-0.046,0.826-0.056    c0.288,0.01,0.548,0.047,0.835,0.056c38.941,0.618,94.549-58.086,95.729-129.701C351.966,193.707,371.669,100.24,265.895,92.668z" style="fill:#FEE7BE;"/><path d="M265.895,92.668c-3.082-0.668-6.694-0.947-10.947-0.789h-0.009v259.365h0.009    c0.288,0.01,0.548,0.047,0.835,0.056c38.941,0.618,94.363-58.086,95.729-129.701C351.966,197.365,370.796,96.28,265.895,92.668z" style="fill:#F3CD9E;"/></g><path d="M250.63,365.905c3.909,0.599,7.734,1.272,11.486,1.992   C258.355,367.178,254.539,366.504,250.63,365.905z" style="fill:#788C3F;"/><path d="M250.222,364.146c4.178,0.474,8.273,1.026,12.303,1.64   C258.495,365.172,254.4,364.624,250.222,364.146z" style="fill:#788C3F;"/><path d="M253.546,368.06c1.866-0.362,3.751-0.715,5.654-1.049   C257.297,367.345,255.412,367.697,253.546,368.06z" style="fill:#788C3F;"/><path d="M265.31,364.336c-6.128,0.725-12.089,1.598-17.874,2.609c5.738-1.003,11.671-1.861,17.744-2.581   C265.227,364.354,265.264,364.341,265.31,364.336z" style="fill:#788C3F;"/><path d="M256.183,367.011c0.121-0.028,0.251-0.047,0.381-0.065   C256.434,366.964,256.303,366.982,256.183,367.011z" style="fill:#F0F4DC;"/><path d="M255.867,368.259c0.343-0.069,0.678-0.134,1.012-0.199   C256.545,368.125,256.21,368.189,255.867,368.259z" style="fill:#F0F4DC;"/><path d="M255.96,365.785c0.278,0.037,0.557,0.074,0.826,0.12   C256.517,365.859,256.238,365.822,255.96,365.785z" style="fill:#F0F4DC;"/><path d="M255.663,367.897c0.474,0.093,0.947,0.186,1.42,0.283   C256.61,368.083,256.136,367.99,255.663,367.897z" style="fill:#F0F4DC;"/><path d="M256.322,364.132L256.322,364.132c0.037,0.005,0.075,0.01,0.103,0.014   C256.396,364.142,256.359,364.137,256.322,364.132z" style="fill:#F0F4DC;"/><path d="M256.795,364.155c-0.288,0.051-0.566,0.125-0.854,0.181c0.288-0.037,0.576-0.074,0.873-0.111   L256.795,364.155z" style="fill:#84817A;"/><path d="M256.879,364.234v-0.01c-0.297,0.037-0.585,0.074-0.873,0.111c-0.046,0.005-0.093,0.019-0.13,0.028   C256.21,364.322,256.545,364.276,256.879,364.234z" style="fill:#84817A;"/></g></svg>